<svg width="440" height="115" viewBox="0 0 440 115" fill="none" xmlns="http://www.w3.org/2000/svg">
<g filter="url(#filter0_di_2_5)">
<g filter="url(#filter1_d_2_5)">
<path d="M14.1777 41.3438L6.26758 42.6621L4.11914 24.0098C27.7194 19.7129 42.7259 19.4688 49.1387 23.2773C55.584 27.0534 59.2298 33.3685 60.0762 42.2227C60.4993 55.8294 51.4987 65.2695 33.0742 70.543L33.5137 93.2969L22.332 94.127L14.1777 41.3438ZM32.1465 54.2832C41.2611 51.2233 45.6719 47.4798 45.3789 43.0527C44.8906 40.416 43.7025 38.707 41.8145 37.9258C39.959 37.1445 36.2643 37.2747 30.7305 38.3164L32.1465 54.2832ZM85.125 28.502C92.6771 28.502 99.1224 31.0898 104.461 36.2656C109.799 41.4089 112.469 47.61 112.469 54.8691C112.469 62.1608 109.799 68.3945 104.461 73.5703C99.1224 78.7135 92.6771 81.2852 85.125 81.2852C77.5729 81.2852 71.1276 78.7135 65.7891 73.5703C60.4505 68.3945 57.7812 62.1608 57.7812 54.8691C57.7812 47.61 60.4505 41.4089 65.7891 36.2656C71.1276 31.0898 77.5729 28.502 85.125 28.502ZM102.703 48.8633C102.378 50.3932 101.613 51.7279 100.408 52.8672C98.748 54.4297 96.7624 55.2109 94.4512 55.2109C92.14 55.2109 90.1543 54.446 88.4941 52.916C86.8665 51.3535 86.0527 49.4818 86.0527 47.3008C86.0527 45.1198 86.8665 43.2643 88.4941 41.7344C90.1543 40.2044 92.14 39.4395 94.4512 39.4395C94.9069 39.4395 95.3301 39.472 95.7207 39.5371C93.9303 38.6257 91.9447 38.1699 89.7637 38.1699C86.1504 38.1699 83.0579 39.4232 80.4863 41.9297C77.9473 44.4036 76.6777 47.3984 76.6777 50.9141C76.6777 54.4297 77.9473 57.4245 80.4863 59.8984C83.0579 62.3724 86.1504 63.6094 89.7637 63.6094C93.377 63.6094 96.4531 62.3724 98.9922 59.8984C101.564 57.4245 102.85 54.4297 102.85 50.9141C102.85 50.1979 102.801 49.5143 102.703 48.8633ZM107 32.6523L106.707 26.1582L126.873 22.6426L127.508 45.8848L146.746 21.8613L161.053 34.3125L139.861 58.6289L170.672 78.6973L169.451 93.0039L132.439 67.6621L132.586 91.4902L118.963 93.1016L115.643 31.6758L107 32.6523ZM207.488 54.6738L217.156 64.7324C211.004 73.5866 202.28 78.0299 190.984 78.0625C173.016 78.0625 163.934 69.9082 163.738 53.5996C163.868 35.7611 171.941 26.8255 187.957 26.793C200.685 27.0208 208.204 32.5221 210.516 43.2969L187.371 61.9492C196.779 62.9909 203.484 60.5658 207.488 54.6738ZM179.705 56.4805L196.355 43.541C191.277 39.1465 186.167 38.6908 181.023 42.1738C176.368 46.5684 175.929 51.3372 179.705 56.4805ZM216.18 88.5605L215.105 37.7305L210.809 37.4863L209.734 26.5488L256.316 21.6172L256.072 39.1953L229.9 38.5605L230.096 49.9375L247.723 51.8906L246.453 61.7539L229.07 64.0977L228.191 85.3379L216.18 88.5605ZM293.328 54.6738L302.996 64.7324C296.844 73.5866 288.12 78.0299 276.824 78.0625C258.855 78.0625 249.773 69.9082 249.578 53.5996C249.708 35.7611 257.781 26.8255 273.797 26.793C286.525 27.0208 294.044 32.5221 296.355 43.2969L273.211 61.9492C282.618 62.9909 289.324 60.5658 293.328 54.6738ZM265.545 56.4805L282.195 43.541C277.117 39.1465 272.007 38.6908 266.863 42.1738C262.208 46.5684 261.769 51.3372 265.545 56.4805ZM339.178 25.6211L325.018 84.166L312.176 85.3379L293.914 26.5977L309.393 23.3262L316.229 59.6055L329.559 24.1074L339.178 25.6211ZM380.242 54.6738L389.91 64.7324C383.758 73.5866 375.034 78.0299 363.738 78.0625C345.77 78.0625 336.688 69.9082 336.492 53.5996C336.622 35.7611 344.695 26.8255 360.711 26.793C373.439 27.0208 380.958 32.5221 383.27 43.2969L360.125 61.9492C369.533 62.9909 376.238 60.5658 380.242 54.6738ZM352.459 56.4805L369.109 43.541C364.031 39.1465 358.921 38.6908 353.777 42.1738C349.122 46.5684 348.683 51.3372 352.459 56.4805ZM407.732 53.1602C415.936 51.2396 420.086 48.3262 420.184 44.4199C419.988 42.0762 419.093 40.4974 417.498 39.6836C415.936 38.8372 412.697 38.6582 407.781 39.1465L407.732 53.1602ZM413.104 66.0996C411.281 66.6204 409.344 67.0762 407.293 67.4668L405.828 87.3887L396.014 87.1934L393.084 40.4648L386.053 40.9531L385.662 24.498C406.626 22.6426 419.76 23.6191 425.066 27.4277C430.405 31.2363 433.09 37.0469 433.123 44.8594C432.667 52.3464 429.103 58.1081 422.43 62.1445L435.516 81.2852L420.281 87.0469L413.104 66.0996Z" fill="#DCC600"/>
<path d="M14.1777 41.3438L20.1074 40.4277L19.1804 34.4272L13.1913 35.4254L14.1777 41.3438ZM6.26758 42.6621L0.306988 43.3487L1.0291 49.618L7.25397 48.5805L6.26758 42.6621ZM4.11914 24.0098L3.0444 18.1068L-2.4845 19.1134L-1.84145 24.6963L4.11914 24.0098ZM49.1387 23.2773L46.0748 28.4361L46.0902 28.4453L46.1057 28.4543L49.1387 23.2773ZM60.0762 42.2227L66.0733 42.0361L66.0673 41.8435L66.0489 41.6517L60.0762 42.2227ZM33.0742 70.543L31.4232 64.7746L26.9862 66.0445L27.0753 70.6588L33.0742 70.543ZM33.5137 93.2969L33.9579 99.2804L39.6222 98.8599L39.5126 93.181L33.5137 93.2969ZM22.332 94.127L16.4024 95.043L17.2486 100.521L22.7762 100.11L22.332 94.127ZM32.1465 54.2832L26.1699 54.8132L26.8422 62.393L34.056 59.9712L32.1465 54.2832ZM45.3789 43.0527L51.3658 42.6565L51.3426 42.3058L51.2786 41.9602L45.3789 43.0527ZM41.8145 37.9258L39.4861 43.4556L39.5032 43.4628L39.5203 43.4699L41.8145 37.9258ZM30.7305 38.3164L29.6205 32.42L24.2733 33.4265L24.7539 38.8464L30.7305 38.3164ZM13.1913 35.4254L5.28118 36.7437L7.25397 48.5805L15.1641 47.2621L13.1913 35.4254ZM12.2282 41.9755L10.0797 23.3232L-1.84145 24.6963L0.306988 43.3487L12.2282 41.9755ZM5.19389 29.9127C16.8379 27.7927 26.1306 26.7178 33.1718 26.6032C40.4839 26.4842 44.3881 27.4344 46.0748 28.4361L52.2025 18.1186C47.4765 15.3117 40.671 14.4796 32.9766 14.6048C25.0113 14.7344 15.0006 15.93 3.0444 18.1068L5.19389 29.9127ZM46.1057 28.4543C50.5584 31.063 53.4007 35.4426 54.1034 42.7936L66.0489 41.6517C65.0589 31.2944 60.6096 23.0438 52.1716 18.1004L46.1057 28.4543ZM54.0791 42.4092C54.2432 47.6853 52.6394 51.8656 49.3006 55.3675C45.8036 59.0352 40.0594 62.3028 31.4232 64.7746L34.7252 76.3113C44.5136 73.5097 52.4819 69.4205 57.9856 63.6482C63.6474 57.7099 66.3324 50.3668 66.0733 42.0361L54.0791 42.4092ZM27.0753 70.6588L27.5148 93.4127L39.5126 93.181L39.0731 70.4271L27.0753 70.6588ZM33.0695 87.3133L21.8878 88.1434L22.7762 100.11L33.9579 99.2804L33.0695 87.3133ZM28.2617 93.2109L20.1074 40.4277L8.24808 42.2598L16.4024 95.043L28.2617 93.2109ZM34.056 59.9712C38.9211 58.3379 43.1269 56.3405 46.173 53.7552C49.3451 51.063 51.6744 47.3203 51.3658 42.6565L39.392 43.4489C39.3922 43.4515 39.4066 43.4495 39.3587 43.5445C39.2874 43.686 39.0545 44.0575 38.4081 44.6061C37.0433 45.7644 34.4864 47.1686 30.2369 48.5952L34.056 59.9712ZM51.2786 41.9602C50.5497 38.0241 48.4492 34.1778 44.1086 32.3817L39.5203 43.4699C39.4763 43.4517 39.4028 43.4129 39.3241 43.3491C39.246 43.286 39.2047 43.2322 39.1952 43.2185C39.1841 43.2025 39.3472 43.4326 39.4792 44.1453L51.2786 41.9602ZM44.1428 32.396C41.995 31.4916 39.5493 31.3669 37.4405 31.4412C35.179 31.5209 32.5478 31.869 29.6205 32.42L31.8404 44.2129C34.447 43.7222 36.43 43.4843 37.8632 43.4338C39.4491 43.3779 39.7784 43.5787 39.4861 43.4556L44.1428 32.396ZM24.7539 38.8464L26.1699 54.8132L38.123 53.7532L36.707 37.7864L24.7539 38.8464ZM104.461 36.2656L100.284 40.5734L100.291 40.58L100.298 40.5866L104.461 36.2656ZM104.461 73.5703L108.624 77.8913L108.631 77.8847L108.637 77.8781L104.461 73.5703ZM65.7891 73.5703L61.6126 77.8781L61.6194 77.8847L61.6262 77.8913L65.7891 73.5703ZM65.7891 36.2656L69.9519 40.5866L69.9587 40.58L69.9655 40.5734L65.7891 36.2656ZM102.703 48.8633L108.637 47.9732L96.8345 47.6146L102.703 48.8633ZM100.408 52.8672L104.52 57.2364L104.526 57.2312L104.531 57.226L100.408 52.8672ZM88.4941 52.916L84.3389 57.2443L84.3831 57.2867L84.4281 57.3282L88.4941 52.916ZM88.4941 41.7344L84.4281 37.3222L84.4063 37.3423L84.3847 37.3626L88.4941 41.7344ZM95.7207 39.5371L94.7343 45.4555L98.4428 34.1901L95.7207 39.5371ZM80.4863 41.9297L84.6735 46.2271L84.6742 46.2264L80.4863 41.9297ZM80.4863 59.8984L76.2991 64.1958L76.3128 64.2091L76.3266 64.2224L80.4863 59.8984ZM98.9922 59.8984L94.8324 55.5745L94.8187 55.5877L94.805 55.6011L98.9922 59.8984ZM85.125 34.502C91.1452 34.502 96.0848 36.5018 100.284 40.5734L108.637 31.9578C102.16 25.6779 94.2089 22.502 85.125 22.502V34.502ZM100.298 40.5866C104.491 44.6259 106.469 49.2787 106.469 54.8691H118.469C118.469 45.9414 115.108 38.1918 108.624 31.9447L100.298 40.5866ZM106.469 54.8691C106.469 60.5015 104.483 65.1917 100.284 69.2625L108.637 77.8781C115.116 71.5974 118.469 63.8201 118.469 54.8691H106.469ZM100.298 69.2494C96.1008 73.2931 91.157 75.2852 85.125 75.2852V87.2852C94.1972 87.2852 102.144 84.134 108.624 77.8913L100.298 69.2494ZM85.125 75.2852C79.093 75.2852 74.1492 73.2931 69.9519 69.2494L61.6262 77.8913C68.106 84.134 76.0528 87.2852 85.125 87.2852V75.2852ZM69.9655 69.2625C65.7667 65.1917 63.7812 60.5015 63.7812 54.8691H51.7812C51.7812 63.8201 55.1344 71.5974 61.6126 77.8781L69.9655 69.2625ZM63.7812 54.8691C63.7812 49.2787 65.7592 44.6259 69.9519 40.5866L61.6262 31.9447C55.1418 38.1918 51.7812 45.9414 51.7812 54.8691H63.7812ZM69.9655 40.5734C74.1652 36.5018 79.1048 34.502 85.125 34.502V22.502C76.0411 22.502 68.09 25.6779 61.6126 31.9578L69.9655 40.5734ZM96.8345 47.6146C96.7776 47.8818 96.6617 48.152 96.285 48.5084L104.531 57.226C106.564 55.3037 107.978 52.9047 108.572 50.1119L96.8345 47.6146ZM96.296 48.498C95.7658 48.997 95.2574 49.2109 94.4512 49.2109V61.2109C98.2674 61.2109 101.73 59.8623 104.52 57.2364L96.296 48.498ZM94.4512 49.2109C93.6071 49.2109 93.0837 48.9863 92.5602 48.5039L84.4281 57.3282C87.2249 59.9056 90.6729 61.2109 94.4512 61.2109V49.2109ZM92.6493 48.5877C92.1546 48.1127 92.0527 47.7857 92.0527 47.3008H80.0527C80.0527 51.1778 81.5785 54.5943 84.3389 57.2443L92.6493 48.5877ZM92.0527 47.3008C92.0527 46.8203 92.1493 46.5332 92.6036 46.1061L84.3847 37.3626C81.5837 39.9955 80.0527 43.4193 80.0527 47.3008H92.0527ZM92.5602 46.1465C93.0837 45.6641 93.6071 45.4395 94.4512 45.4395V33.4395C90.6729 33.4395 87.2249 34.7448 84.4281 37.3222L92.5602 46.1465ZM94.4512 45.4395C94.6246 45.4395 94.714 45.4521 94.7343 45.4555L96.7071 33.6187C95.9461 33.4919 95.1892 33.4395 94.4512 33.4395V45.4395ZM98.4428 34.1901C95.7385 32.8134 92.8082 32.1699 89.7637 32.1699V44.1699C91.0812 44.1699 92.1221 44.4379 92.9986 44.8841L98.4428 34.1901ZM89.7637 32.1699C84.5966 32.1699 79.9983 34.0268 76.2984 37.633L84.6742 46.2264C86.1176 44.8195 87.7042 44.1699 89.7637 44.1699V32.1699ZM76.2991 37.6323C72.6119 41.225 70.6777 45.7649 70.6777 50.9141H82.6777C82.6777 49.032 83.2826 47.5823 84.6735 46.2271L76.2991 37.6323ZM70.6777 50.9141C70.6777 56.0632 72.6119 60.6032 76.2991 64.1958L84.6735 55.6011C83.2826 54.2458 82.6777 52.7961 82.6777 50.9141H70.6777ZM76.3266 64.2224C80.0316 67.7867 84.6211 69.6094 89.7637 69.6094V57.6094C87.6797 57.6094 86.0843 56.9581 84.6461 55.5745L76.3266 64.2224ZM89.7637 69.6094C94.9076 69.6094 99.496 67.7847 103.179 64.1958L94.805 55.6011C93.4102 56.9601 91.8463 57.6094 89.7637 57.6094V69.6094ZM103.152 64.2224C106.879 60.6365 108.85 56.0887 108.85 50.9141H96.8496C96.8496 52.7706 96.2482 54.2125 94.8324 55.5745L103.152 64.2224ZM108.85 50.9141C108.85 49.9257 108.782 48.9433 108.637 47.9732L96.7695 49.7533C96.8193 50.0854 96.8496 50.4701 96.8496 50.9141H108.85ZM107 32.6523L101.006 32.9227L101.295 39.3351L107.674 38.6144L107 32.6523ZM106.707 26.1582L105.677 20.2474L100.475 21.1541L100.713 26.4286L106.707 26.1582ZM126.873 22.6426L132.871 22.4788L132.681 15.5395L125.843 16.7317L126.873 22.6426ZM127.508 45.8848L121.51 46.0486L121.957 62.4149L132.191 49.6353L127.508 45.8848ZM146.746 21.8613L150.685 17.3354L145.97 13.2318L142.063 18.1108L146.746 21.8613ZM161.053 34.3125L165.576 38.2545L169.521 33.7282L164.992 29.7865L161.053 34.3125ZM139.861 58.6289L135.338 54.6869L130.804 59.8898L136.587 63.6565L139.861 58.6289ZM170.672 78.6973L176.65 79.2074L176.955 75.6295L173.947 73.6697L170.672 78.6973ZM169.451 93.0039L166.061 97.9546L174.554 103.77L175.429 93.514L169.451 93.0039ZM132.439 67.6621L135.829 62.7114L126.369 56.2341L126.44 67.699L132.439 67.6621ZM132.586 91.4902L133.291 97.4487L138.619 96.8185L138.586 91.4533L132.586 91.4902ZM118.963 93.1016L112.972 93.4254L113.317 99.8112L119.668 99.06L118.963 93.1016ZM115.643 31.6758L121.634 31.3519L121.29 24.9994L114.969 25.7137L115.643 31.6758ZM112.994 32.3819L112.701 25.8878L100.713 26.4286L101.006 32.9227L112.994 32.3819ZM107.737 32.0691L127.904 28.5534L125.843 16.7317L105.677 20.2474L107.737 32.0691ZM120.875 22.8064L121.51 46.0486L133.506 45.721L132.871 22.4788L120.875 22.8064ZM132.191 49.6353L151.429 25.6118L142.063 18.1108L122.824 42.1343L132.191 49.6353ZM142.807 26.3873L157.114 38.8385L164.992 29.7865L150.685 17.3354L142.807 26.3873ZM156.529 30.3705L135.338 54.6869L144.385 62.5709L165.576 38.2545L156.529 30.3705ZM136.587 63.6565L167.397 83.7248L173.947 73.6697L143.136 53.6013L136.587 63.6565ZM164.694 78.1872L163.473 92.4938L175.429 93.514L176.65 79.2074L164.694 78.1872ZM172.841 88.0532L135.829 62.7114L129.05 72.6128L166.061 97.9546L172.841 88.0532ZM126.44 67.699L126.586 91.5271L138.586 91.4533L138.439 67.6252L126.44 67.699ZM131.881 85.5318L118.258 87.1431L119.668 99.06L133.291 97.4487L131.881 85.5318ZM124.954 92.7777L121.634 31.3519L109.651 31.9996L112.972 93.4254L124.954 92.7777ZM114.969 25.7137L106.326 26.6903L107.674 38.6144L116.316 37.6378L114.969 25.7137ZM207.488 54.6738L211.814 50.516L206.685 45.1802L202.526 51.3015L207.488 54.6738ZM217.156 64.7324L222.084 68.1562L224.889 64.119L221.482 60.5746L217.156 64.7324ZM190.984 78.0625V84.0625H190.993L191.002 84.0625L190.984 78.0625ZM163.738 53.5996L157.738 53.5558L157.738 53.6136L157.739 53.6715L163.738 53.5996ZM187.957 26.793L188.064 20.7939L188.005 20.7929L187.945 20.793L187.957 26.793ZM210.516 43.2969L214.281 47.9686L217.157 45.6505L216.382 42.0385L210.516 43.2969ZM187.371 61.9492L183.606 57.2775L172.379 66.3258L186.711 67.9128L187.371 61.9492ZM179.705 56.4805L174.869 60.0313L178.518 65.0019L183.387 61.2181L179.705 56.4805ZM196.355 43.541L200.037 48.2786L205.813 43.7904L200.282 39.004L196.355 43.541ZM181.023 42.1738L177.659 37.2058L177.257 37.4779L176.905 37.8109L181.023 42.1738ZM203.162 58.8316L212.83 68.8902L221.482 60.5746L211.814 50.516L203.162 58.8316ZM212.229 61.3087C207.256 68.4652 200.414 72.0353 190.967 72.0625L191.002 84.0625C204.146 84.0246 214.752 78.7079 222.084 68.1562L212.229 61.3087ZM190.984 72.0625C182.795 72.0625 177.724 70.193 174.705 67.4822C171.793 64.8679 169.822 60.5942 169.738 53.5278L157.739 53.6715C157.849 62.9136 160.518 70.8713 166.688 76.4113C172.751 81.8549 181.205 84.0625 190.984 84.0625V72.0625ZM169.738 53.6434C169.798 45.5038 171.674 40.4951 174.343 37.5413C176.903 34.7073 181.067 32.807 187.969 32.793L187.945 20.793C178.831 20.8115 170.951 23.3952 165.439 29.4967C160.034 35.4785 157.809 43.8569 157.738 53.5558L169.738 53.6434ZM187.85 32.792C193.419 32.8917 197.145 34.1361 199.6 35.9323C201.961 37.6594 203.743 40.3292 204.649 44.5553L216.382 42.0385C214.977 35.4898 211.844 30.0216 206.685 26.2474C201.621 22.5423 195.222 20.9221 188.064 20.7939L187.85 32.792ZM206.751 38.6252L183.606 57.2775L191.136 66.6209L214.281 47.9686L206.751 38.6252ZM186.711 67.9128C197.486 69.1059 206.784 66.385 212.451 58.0462L202.526 51.3015C200.185 54.7465 196.071 56.8759 188.031 55.9857L186.711 67.9128ZM183.387 61.2181L200.037 48.2786L192.674 38.8034L176.023 51.7429L183.387 61.2181ZM200.282 39.004C197.083 36.236 193.393 34.2968 189.247 33.927C185.042 33.5521 181.125 34.8586 177.659 37.2058L184.388 47.1418C186.065 46.006 187.275 45.7988 188.181 45.8796C189.145 45.9656 190.55 46.4515 192.429 48.078L200.282 39.004ZM176.905 37.8109C173.877 40.6687 171.621 44.2276 171.228 48.4958C170.834 52.7677 172.405 56.6764 174.869 60.0313L184.542 52.9296C183.229 51.1414 183.132 50.094 183.177 49.597C183.223 49.0963 183.515 48.0734 185.142 46.5368L176.905 37.8109ZM216.18 88.5605L210.181 88.6873L210.343 96.3388L217.734 94.3556L216.18 88.5605ZM215.105 37.7305L221.104 37.6037L220.987 32.055L215.446 31.7401L215.105 37.7305ZM210.809 37.4863L204.837 38.0728L205.339 43.1853L210.468 43.4767L210.809 37.4863ZM209.734 26.5488L209.103 20.5822L203.181 21.2091L203.763 27.1353L209.734 26.5488ZM256.316 21.6172L262.316 21.7005L262.41 14.9386L255.685 15.6505L256.316 21.6172ZM256.072 39.1953L255.927 45.1935L261.987 45.3405L262.072 39.2786L256.072 39.1953ZM229.9 38.5605L230.046 32.5623L223.794 32.4107L223.901 38.6635L229.9 38.5605ZM230.096 49.9375L224.097 50.0405L224.187 55.3195L229.435 55.901L230.096 49.9375ZM247.723 51.8906L253.674 52.6566L254.453 46.5997L248.383 45.9271L247.723 51.8906ZM246.453 61.7539L247.255 67.7001L251.816 67.0851L252.404 62.5199L246.453 61.7539ZM229.07 64.0977L228.269 58.1515L223.283 58.8236L223.075 63.8496L229.07 64.0977ZM228.191 85.3379L229.746 91.1329L234.004 89.9906L234.186 85.586L228.191 85.3379ZM222.178 88.4338L221.104 37.6037L209.107 37.8572L210.181 88.6873L222.178 88.4338ZM215.446 31.7401L211.149 31.496L210.468 43.4767L214.765 43.7208L215.446 31.7401ZM216.78 36.8999L215.706 25.9624L203.763 27.1353L204.837 38.0728L216.78 36.8999ZM210.366 32.5155L256.948 27.5838L255.685 15.6505L209.103 20.5822L210.366 32.5155ZM250.317 21.5339L250.073 39.112L262.072 39.2786L262.316 21.7005L250.317 21.5339ZM256.218 33.1971L230.046 32.5623L229.755 44.5588L255.927 45.1935L256.218 33.1971ZM223.901 38.6635L224.097 50.0405L236.095 49.8345L235.9 38.4576L223.901 38.6635ZM229.435 55.901L247.062 57.8541L248.383 45.9271L230.756 43.974L229.435 55.901ZM241.772 51.1247L240.502 60.9879L252.404 62.5199L253.674 52.6566L241.772 51.1247ZM245.651 55.8077L228.269 58.1515L229.872 70.0439L247.255 67.7001L245.651 55.8077ZM223.075 63.8496L222.197 85.0898L234.186 85.586L235.065 64.3457L223.075 63.8496ZM226.637 79.5428L214.625 82.7655L217.734 94.3556L229.746 91.1329L226.637 79.5428ZM293.328 54.6738L297.654 50.516L292.525 45.1802L288.366 51.3015L293.328 54.6738ZM302.996 64.7324L307.923 68.1562L310.729 64.119L307.322 60.5746L302.996 64.7324ZM276.824 78.0625V84.0625H276.833L276.842 84.0625L276.824 78.0625ZM249.578 53.5996L243.578 53.5558L243.578 53.6136L243.579 53.6715L249.578 53.5996ZM273.797 26.793L273.904 20.7939L273.844 20.7929L273.785 20.793L273.797 26.793ZM296.355 43.2969L300.12 47.9686L302.997 45.6505L302.222 42.0385L296.355 43.2969ZM273.211 61.9492L269.446 57.2775L258.218 66.3258L272.551 67.9128L273.211 61.9492ZM265.545 56.4805L260.708 60.0313L264.358 65.0019L269.227 61.2181L265.545 56.4805ZM282.195 43.541L285.877 48.2786L291.652 43.7904L286.122 39.004L282.195 43.541ZM266.863 42.1738L263.499 37.2058L263.097 37.4779L262.744 37.8109L266.863 42.1738ZM289.002 58.8316L298.67 68.8902L307.322 60.5746L297.654 50.516L289.002 58.8316ZM298.069 61.3087C293.096 68.4652 286.254 72.0353 276.807 72.0625L276.842 84.0625C289.986 84.0246 300.591 78.7079 307.923 68.1562L298.069 61.3087ZM276.824 72.0625C268.635 72.0625 263.564 70.193 260.545 67.4822C257.633 64.8679 255.662 60.5942 255.578 53.5278L243.579 53.6715C243.689 62.9136 246.357 70.8713 252.528 76.4113C258.591 81.8549 267.045 84.0625 276.824 84.0625V72.0625ZM255.578 53.6434C255.637 45.5038 257.514 40.4951 260.183 37.5413C262.743 34.7073 266.907 32.807 273.809 32.793L273.785 20.793C264.671 20.8115 256.791 23.3952 251.278 29.4967C245.874 35.4785 243.649 43.8569 243.578 53.5558L255.578 53.6434ZM273.689 32.792C279.259 32.8917 282.985 34.1361 285.44 35.9323C287.8 37.6594 289.582 40.3292 290.489 44.5553L302.222 42.0385C300.817 35.4898 297.684 30.0216 292.525 26.2474C287.461 22.5423 281.062 20.9221 273.904 20.7939L273.689 32.792ZM292.59 38.6252L269.446 57.2775L276.976 66.6209L300.12 47.9686L292.59 38.6252ZM272.551 67.9128C283.326 69.1059 292.624 66.385 298.291 58.0462L288.366 51.3015C286.024 54.7465 281.911 56.8759 273.871 55.9857L272.551 67.9128ZM269.227 61.2181L285.877 48.2786L278.514 38.8034L261.863 51.7429L269.227 61.2181ZM286.122 39.004C282.923 36.236 279.233 34.2968 275.087 33.927C270.882 33.5521 266.965 34.8586 263.499 37.2058L270.228 47.1418C271.905 46.006 273.115 45.7988 274.021 45.8796C274.985 45.9656 276.39 46.4515 278.269 48.078L286.122 39.004ZM262.744 37.8109C259.717 40.6687 257.461 44.2276 257.068 48.4958C256.674 52.7677 258.245 56.6764 260.708 60.0313L270.381 52.9296C269.068 51.1414 268.971 50.094 269.017 49.597C269.063 49.0963 269.354 48.0734 270.982 46.5368L262.744 37.8109ZM339.178 25.6211L345.01 27.0316L346.54 20.7057L340.11 19.694L339.178 25.6211ZM325.018 84.166L325.563 90.1412L329.84 89.7509L330.849 85.5766L325.018 84.166ZM312.176 85.3379L306.446 87.1191L307.887 91.7542L312.721 91.3131L312.176 85.3379ZM293.914 26.5977L292.673 20.7273L286.229 22.0893L288.185 28.3789L293.914 26.5977ZM309.393 23.3262L315.289 22.2152L314.153 16.1875L308.152 17.4559L309.393 23.3262ZM316.229 59.6055L310.332 60.7165L314.304 81.7969L321.846 61.7147L316.229 59.6055ZM329.559 24.1074L330.491 18.1804L325.661 17.4202L323.942 21.9981L329.559 24.1074ZM333.346 24.2106L319.186 82.7555L330.849 85.5766L345.01 27.0316L333.346 24.2106ZM324.472 78.1908L311.631 79.3627L312.721 91.3131L325.563 90.1412L324.472 78.1908ZM317.905 83.5566L299.644 24.8164L288.185 28.3789L306.446 87.1191L317.905 83.5566ZM295.155 32.468L310.633 29.1965L308.152 17.4559L292.673 20.7273L295.155 32.468ZM303.496 24.4372L310.332 60.7165L322.125 58.4945L315.289 22.2152L303.496 24.4372ZM321.846 61.7147L335.176 26.2167L323.942 21.9981L310.611 57.4962L321.846 61.7147ZM328.626 30.0345L338.245 31.5482L340.11 19.694L330.491 18.1804L328.626 30.0345ZM380.242 54.6738L384.568 50.516L379.439 45.1802L375.28 51.3015L380.242 54.6738ZM389.91 64.7324L394.837 68.1562L397.643 64.119L394.236 60.5746L389.91 64.7324ZM363.738 78.0625V84.0625H363.747L363.756 84.0625L363.738 78.0625ZM336.492 53.5996L330.492 53.5558L330.492 53.6136L330.493 53.6715L336.492 53.5996ZM360.711 26.793L360.818 20.7939L360.759 20.7929L360.699 20.793L360.711 26.793ZM383.27 43.2969L387.035 47.9686L389.911 45.6505L389.136 42.0385L383.27 43.2969ZM360.125 61.9492L356.36 57.2775L345.133 66.3258L359.465 67.9128L360.125 61.9492ZM352.459 56.4805L347.623 60.0313L351.272 65.0019L356.141 61.2181L352.459 56.4805ZM369.109 43.541L372.791 48.2786L378.567 43.7904L373.036 39.004L369.109 43.541ZM353.777 42.1738L350.413 37.2058L350.011 37.4779L349.658 37.8109L353.777 42.1738ZM375.916 58.8316L385.584 68.8902L394.236 60.5746L384.568 50.516L375.916 58.8316ZM384.983 61.3087C380.01 68.4652 373.168 72.0353 363.721 72.0625L363.756 84.0625C376.9 84.0246 387.505 78.7079 394.837 68.1562L384.983 61.3087ZM363.738 72.0625C355.549 72.0625 350.478 70.193 347.459 67.4822C344.547 64.8679 342.576 60.5942 342.492 53.5278L330.493 53.6715C330.603 62.9136 333.271 70.8713 339.442 76.4113C345.505 81.8549 353.959 84.0625 363.738 84.0625V72.0625ZM342.492 53.6434C342.551 45.5038 344.428 40.4951 347.097 37.5413C349.657 34.7073 353.821 32.807 360.723 32.793L360.699 20.793C351.585 20.8115 343.705 23.3952 338.192 29.4967C332.788 35.4785 330.563 43.8569 330.492 53.5558L342.492 53.6434ZM360.604 32.792C366.173 32.8917 369.899 34.1361 372.354 35.9323C374.714 37.6594 376.496 40.3292 377.403 44.5553L389.136 42.0385C387.731 35.4898 384.598 30.0216 379.439 26.2474C374.375 22.5423 367.976 20.9221 360.818 20.7939L360.604 32.792ZM379.505 38.6252L356.36 57.2775L363.89 66.6209L387.035 47.9686L379.505 38.6252ZM359.465 67.9128C370.24 69.1059 379.538 66.385 385.205 58.0462L375.28 51.3015C372.939 54.7465 368.825 56.8759 360.785 55.9857L359.465 67.9128ZM356.141 61.2181L372.791 48.2786L365.428 38.8034L348.777 51.7429L356.141 61.2181ZM373.036 39.004C369.837 36.236 366.147 34.2968 362.001 33.927C357.796 33.5521 353.879 34.8586 350.413 37.2058L357.142 47.1418C358.819 46.006 360.029 45.7988 360.935 45.8796C361.899 45.9656 363.304 46.4515 365.183 48.078L373.036 39.004ZM349.658 37.8109C346.631 40.6687 344.375 44.2276 343.982 48.4958C343.588 52.7677 345.159 56.6764 347.623 60.0313L357.295 52.9296C355.983 51.1414 355.885 50.094 355.931 49.597C355.977 49.0963 356.268 48.0734 357.896 46.5368L349.658 37.8109ZM407.732 53.1602L401.732 53.1393L401.706 60.7334L409.1 59.0022L407.732 53.1602ZM420.184 44.4199L426.182 44.5699L426.19 44.2453L426.163 43.9216L420.184 44.4199ZM417.498 39.6836L414.64 44.9593L414.705 44.9946L414.771 45.0282L417.498 39.6836ZM407.781 39.1465L407.188 33.1759L401.8 33.7111L401.781 39.1256L407.781 39.1465ZM413.104 66.0996L418.78 64.1547L416.933 58.7654L411.455 60.3305L413.104 66.0996ZM407.293 67.4668L406.17 61.5728L401.647 62.4344L401.309 67.0268L407.293 67.4668ZM405.828 87.3887L405.709 93.3875L411.395 93.5006L411.812 87.8287L405.828 87.3887ZM396.014 87.1934L390.025 87.5688L390.371 93.0823L395.894 93.1922L396.014 87.1934ZM393.084 40.4648L399.072 40.0894L398.694 34.0608L392.668 34.4793L393.084 40.4648ZM386.053 40.9531L380.054 41.0955L380.203 47.3738L386.468 46.9387L386.053 40.9531ZM385.662 24.498L385.133 18.5214L379.53 19.0173L379.664 24.6404L385.662 24.498ZM425.066 27.4277L421.568 32.302L421.575 32.3071L421.582 32.3121L425.066 27.4277ZM433.123 44.8594L439.112 45.2239L439.124 45.0293L439.123 44.8344L433.123 44.8594ZM422.43 62.1445L419.324 57.0107L413.896 60.2939L417.477 65.5308L422.43 62.1445ZM435.516 81.2852L437.638 86.8972L444.775 84.1979L440.469 77.8989L435.516 81.2852ZM420.281 87.0469L414.605 88.9918L416.612 94.8493L422.404 92.6589L420.281 87.0469ZM409.1 59.0022C413.52 57.9674 417.462 56.5394 420.445 54.4455C423.568 52.2531 426.072 48.9705 426.182 44.5699L414.185 44.27C414.198 43.7756 414.577 43.9028 413.55 44.6238C412.383 45.4433 410.148 46.4323 406.365 47.3181L409.1 59.0022ZM426.163 43.9216C425.856 40.241 424.242 36.3883 420.225 34.339L414.771 45.0282C414.666 44.9742 414.535 44.8875 414.406 44.764C414.278 44.641 414.194 44.5216 414.146 44.4375C414.058 44.2824 414.158 44.3661 414.204 44.9182L426.163 43.9216ZM420.356 34.4078C418.393 33.3446 416.119 33.0282 414.228 32.9237C412.186 32.8108 409.812 32.9152 407.188 33.1759L408.374 45.1171C410.666 44.8895 412.369 44.8393 413.566 44.9054C414.914 44.9799 415.041 45.1762 414.64 44.9593L420.356 34.4078ZM401.781 39.1256L401.732 53.1393L413.732 53.1811L413.781 39.1674L401.781 39.1256ZM411.455 60.3305C409.822 60.7971 408.062 61.2125 406.17 61.5728L408.416 73.3608C410.626 72.9398 412.739 72.4437 414.752 71.8688L411.455 60.3305ZM401.309 67.0268L399.844 86.9487L411.812 87.8287L413.277 67.9068L401.309 67.0268ZM405.948 81.3899L396.133 81.1945L395.894 93.1922L405.709 93.3875L405.948 81.3899ZM402.002 86.8179L399.072 40.0894L387.096 40.8403L390.025 87.5688L402.002 86.8179ZM392.668 34.4793L385.637 34.9675L386.468 46.9387L393.5 46.4504L392.668 34.4793ZM392.051 40.8107L391.66 24.3557L379.664 24.6404L380.054 41.0955L392.051 40.8107ZM386.191 30.4747C396.516 29.5608 404.681 29.368 410.791 29.8224C417.171 30.2967 420.341 31.4217 421.568 32.302L428.565 22.5534C424.486 19.6252 418.435 18.3576 411.681 17.8554C404.656 17.3331 395.772 17.5798 385.133 18.5214L386.191 30.4747ZM421.582 32.3121C425.036 34.7767 427.097 38.5827 427.123 44.8844L439.123 44.8344C439.084 35.511 435.774 27.696 428.551 22.5433L421.582 32.3121ZM427.134 44.4948C426.804 49.9237 424.391 53.9458 419.324 57.0107L425.535 67.2784C433.814 62.2704 438.531 54.769 439.112 45.2239L427.134 44.4948ZM417.477 65.5308L430.563 84.6714L440.469 77.8989L427.383 58.7582L417.477 65.5308ZM433.393 75.6731L418.159 81.4348L422.404 92.6589L437.638 86.8972L433.393 75.6731ZM425.957 85.1019L418.78 64.1547L407.427 68.0445L414.605 88.9918L425.957 85.1019Z" fill="#101355"/>
</g>
</g>
<defs>
<filter id="filter0_di_2_5" x="0.119141" y="0" width="439.881" height="123" filterUnits="userSpaceOnUse" color-interpolation-filters="sRGB">
<feFlood flood-opacity="0" result="BackgroundImageFix"/>
<feColorMatrix in="SourceAlpha" type="matrix" values="0 0 0 0 0 0 0 0 0 0 0 0 0 0 0 0 0 0 127 0" result="hardAlpha"/>
<feOffset dy="4"/>
<feGaussianBlur stdDeviation="2"/>
<feComposite in2="hardAlpha" operator="out"/>
<feColorMatrix type="matrix" values="0 0 0 0 0 0 0 0 0 0 0 0 0 0 0 0 0 0 0.25 0"/>
<feBlend mode="normal" in2="BackgroundImageFix" result="effect1_dropShadow_2_5"/>
<feBlend mode="normal" in="SourceGraphic" in2="effect1_dropShadow_2_5" result="shape"/>
<feColorMatrix in="SourceAlpha" type="matrix" values="0 0 0 0 0 0 0 0 0 0 0 0 0 0 0 0 0 0 127 0" result="hardAlpha"/>
<feOffset dx="-6" dy="-8"/>
<feComposite in2="hardAlpha" operator="arithmetic" k2="-1" k3="1"/>
<feColorMatrix type="matrix" values="0 0 0 0 0 0 0 0 0 0 0 0 0 0 0 0 0 0 0.25 0"/>
<feBlend mode="normal" in2="shape" result="effect2_innerShadow_2_5"/>
</filter>
<filter id="filter1_d_2_5" x="4.11914" y="17.5645" width="431.396" height="80.5625" filterUnits="userSpaceOnUse" color-interpolation-filters="sRGB">
<feFlood flood-opacity="0" result="BackgroundImageFix"/>
<feColorMatrix in="SourceAlpha" type="matrix" values="0 0 0 0 0 0 0 0 0 0 0 0 0 0 0 0 0 0 127 0" result="hardAlpha"/>
<feOffset dy="4"/>
<feComposite in2="hardAlpha" operator="out"/>
<feColorMatrix type="matrix" values="0 0 0 0 0 0 0 0 0 0 0 0 0 0 0 0 0 0 1 0"/>
<feBlend mode="normal" in2="BackgroundImageFix" result="effect1_dropShadow_2_5"/>
<feBlend mode="normal" in="SourceGraphic" in2="effect1_dropShadow_2_5" result="shape"/>
</filter>
</defs>
</svg>
